Coordinates
version=1
nRows=10
nColumns=46
inDegrees=yes

Units are S.I. units (second, meters, Newtons, ...)
Angles are in degrees.

endheader
time	pelvis_tilt	pelvis_list	pelvis_rotation	pelvis_tx	pelvis_ty	pelvis_tz	bb_angle	bb_tx	bb_ty	bb_tz	hip_flexion_r	hip_adduction_r	hip_rotation_r	knee_angle_r	knee_angle_r_beta	ankle_angle_r	subtalar_angle_r	mtp_angle_r	crank_angle_r	hip_flexion_l	hip_adduction_l	hip_rotation_l	knee_angle_l	knee_angle_l_beta	ankle_angle_l	subtalar_angle_l	mtp_angle_l	crank_angle_l	lumbar_extension	lumbar_bending	lumbar_rotation	arm_flex_r	arm_add_r	arm_rot_r	elbow_flex_r	pro_sup_r	wrist_flex_r	wrist_dev_r	arm_flex_l	arm_add_l	arm_rot_l	elbow_flex_l	pro_sup_l	wrist_flex_l	wrist_dev_l
      2.50500000	    -17.99335247	     -3.08969241	      1.82347024	      0.18082807	      1.05852809	     -0.24819978	      0.00000000	      0.50000000	      0.00000000	      0.25000000	     58.66491174	     -0.57005668	      4.83993524	     91.44192201	      1.59596261	      4.49238110	     -6.66795975	      0.00000000	      0.00000000	     62.69735930	     -4.23406674	      4.50147501	     52.09522614	      0.90923322	     11.75353936	     -7.39368813	      0.00000000	      0.00000000	    -65.27053202	     -3.68982510	     -0.50484346	     80.08760942	    -34.88323713	     26.36074721	     77.82650286	     47.92301262	      0.00000000	      0.00000000	     87.08954619	    -19.84702348	     30.48982579	     83.21801198	     43.74807271	      0.00000000	      0.00000000
      2.51000000	    -17.87014603	     -3.49702098	      1.43221033	      0.18186165	      1.05841971	     -0.24857003	      0.00000000	      0.50000000	      0.00000000	      0.25000000	     59.19417660	     -0.03895196	      4.76832753	     92.71210075	      1.61813141	      4.81396787	     -6.59509236	      0.00000000	      0.00000000	     61.78998255	     -4.83151064	      4.50086033	     50.87861719	      0.88799939	     10.84541661	     -7.12388198	      0.00000000	      0.00000000	    -65.20727825	     -3.50364895	      0.06450170	     80.06110322	    -34.66169715	     26.56317972	     77.83255805	     47.95904368	      0.00000000	      0.00000000	     86.72193568	    -20.03159691	     30.52624246	     83.26231283	     43.77031846	      0.00000000	      0.00000000
      2.51500000	    -17.74025257	     -3.81048731	      1.02081140	      0.18286742	      1.05828446	     -0.24908301	      0.00000000	      0.50000000	      0.00000000	      0.25000000	     59.74315568	      0.42960109	      4.82111036	     94.01399919	      1.64085383	      5.24906192	     -6.36822828	      0.00000000	      0.00000000	     60.82535978	     -5.37130366	      4.45407242	     49.66825400	      0.86687457	      9.84394496	     -6.91283246	      0.00000000	      0.00000000	    -65.13456479	     -3.36306471	      0.56173107	     80.05997166	    -34.42652645	     26.79720636	     77.82936948	     47.99671318	      0.00000000	      0.00000000	     86.26054392	    -20.21245007	     30.55008711	     83.30566559	     43.79472104	      0.00000000	      0.00000000
      2.52000000	    -17.56401314	     -3.88521224	      0.63101764	      0.18386194	      1.05827134	     -0.24977282	      0.00000000	      0.50000000	      0.00000000	      0.25000000	     60.27529516	      0.66531025	      5.10873175	     95.37090350	      1.66453628	      6.07360131	     -5.24575499	      0.00000000	      0.00000000	     59.70063403	     -5.69444872	      4.21331863	     48.33259633	      0.84356294	      8.61403841	     -7.39773304	      0.00000000	      0.00000000	    -65.11750964	     -3.25077244	      0.59351021	     80.43430153	    -33.83145156	     27.59308115	     77.35314436	     48.08798472	      0.00000000	      0.00000000	     85.60741052	    -20.82274032	     30.28329219	     83.75955170	     43.92621477	      0.00000000	      0.00000000
      2.52500000	    -17.42835548	     -4.26050933	      0.23241541	      0.18487935	      1.05814636	     -0.25011313	      0.00000000	      0.50000000	      0.00000000	      0.25000000	     60.82784191	      1.19475970	      5.08466179	     96.60249708	      1.68603164	      6.44726573	     -5.24911166	      0.00000000	      0.00000000	     58.70331782	     -6.32469167	      4.07119718	     47.10575348	      0.82215049	      7.78960893	     -6.98461672	      0.00000000	      0.00000000	    -65.01155789	     -3.04790460	      1.17665812	     80.45876059	    -33.54242440	     27.80972547	     77.27825008	     48.11443971	      0.00000000	      0.00000000	     85.06457559	    -21.04474222	     30.30051304	     83.74052788	     43.94543135	      0.00000000	      0.00000000
      2.53000000	    -17.23260642	     -4.42971708	     -0.22540256	      0.18587295	      1.05815251	     -0.25050427	      0.00000000	      0.50000000	      0.00000000	      0.25000000	     61.35608347	      1.63689458	      5.37260975	     97.85180805	      1.70783623	      7.06602093	     -4.66237991	      0.00000000	      0.00000000	     57.53122295	     -6.82074334	      3.81273537	     45.81668055	      0.79965193	      6.90974312	     -6.97887215	      0.00000000	      0.00000000	    -64.97099788	     -2.90351047	      1.36809426	     80.78074949	    -32.75325532	     28.43987251	     76.60706571	     48.13961918	      0.00000000	      0.00000000	     84.26500783	    -21.47269897	     29.76393691	     83.94930658	     44.02050841	      0.00000000	      0.00000000
      2.53500000	    -17.16277481	     -4.82269319	     -0.53669421	      0.18676090	      1.05785522	     -0.25088326	      0.00000000	      0.50000000	      0.00000000	      0.25000000	     62.01065213	      2.12029624	      5.30145418	     99.07647553	      1.72921071	      7.35309625	     -4.69414495	      0.00000000	      0.00000000	     56.58646815	     -7.37284991	      3.81181974	     44.61561419	      0.77868937	      6.25880162	     -6.59027960	      0.00000000	      0.00000000	    -64.76747356	     -2.56710709	      2.01973725	     80.72558007	    -32.49235528	     28.56400366	     76.55562289	     48.14956128	      0.00000000	      0.00000000	     83.77753212	    -21.65030073	     29.73801503	     83.92117530	     44.03073104	      0.00000000	      0.00000000
      2.54000000	    -17.03747720	     -5.17937945	     -0.91189801	      0.18768689	      1.05777911	     -0.25122163	      0.00000000	      0.50000000	      0.00000000	      0.25000000	     62.59530641	      2.63330958	      5.27941906	    100.21576530	      1.74909507	      7.73398129	     -4.49516459	      0.00000000	      0.00000000	     55.53037897	     -8.00228827	      3.58293475	     43.35980996	      0.75677145	      5.47964177	     -6.15018147	      0.00000000	      0.00000000	    -64.63800721	     -2.30631471	      2.59618892	     80.72502805	    -32.17065649	     28.72614266	     76.45337938	     48.15579562	      0.00000000	      0.00000000	     83.07875140	    -21.83108984	     29.67359036	     83.82804881	     44.03230618	      0.00000000	      0.00000000
      2.54500000	    -16.90525310	     -5.46747334	     -1.29642888	      0.18866890	      1.05768690	     -0.25152216	      0.00000000	      0.50000000	      0.00000000	      0.25000000	     63.17159484	      3.11338346	      5.32156241	    101.38501932	      1.76950240	      8.24281235	     -4.22665392	      0.00000000	      0.00000000	     54.44167021	     -8.59460100	      3.26398158	     42.11141723	      0.73498288	      4.70153616	     -5.72113057	      0.00000000	      0.00000000	    -64.49667716	     -2.07408217	      3.10411661	     80.74507154	    -31.78366017	     28.91129004	     76.27627464	     48.15066932	      0.00000000	      0.00000000	     82.32187549	    -22.00081699	     29.48475548	     83.71414327	     44.02434631	      0.00000000	      0.00000000
      2.55000000	    -16.55464394	     -5.53040550	     -1.68612109	      0.18962118	      1.05793123	     -0.25195119	      0.00000000	      0.50000000	      0.00000000	      0.25000000	     63.53421845	      3.45569150	      5.71299021	    102.55525091	      1.78992679	      9.22013333	     -3.18686377	      0.00000000	      0.00000000	     53.02871245	     -9.02850223	      2.67587372	     40.82772624	      0.71257825	      3.97260167	     -5.33785807	      0.00000000	      0.00000000	    -64.56766264	     -1.88932981	      3.15656485	     81.25992023	    -30.70853540	     29.58348794	     75.14665351	     48.07557358	      0.00000000	      0.00000000	     81.35815899	    -22.26569077	     28.44301966	     83.63543347	     44.00946004	      0.00000000	      0.00000000
